<svg width="20" height="21" viewBox="0 0 20 21" fill="none" xmlns="http://www.w3.org/2000/svg">
<path d="M9.5 14.1209C9.63333 14.2543 9.80417 14.3168 10.0125 14.3084C10.2208 14.3001 10.3917 14.2293 10.525 14.0959C10.675 13.9459 10.75 13.7709 10.75 13.5709C10.75 13.3709 10.675 13.1959 10.525 13.0459L9.2 11.7209H13.025C13.225 11.7209 13.3958 11.6459 13.5375 11.4959C13.6792 11.3459 13.75 11.1709 13.75 10.9709C13.75 10.7543 13.6792 10.5751 13.5375 10.4334C13.3958 10.2918 13.2167 10.2209 13 10.2209H9.2L10.55 8.87095C10.6833 8.73761 10.7458 8.56678 10.7375 8.35845C10.7292 8.15011 10.6583 7.97928 10.525 7.84595C10.375 7.69595 10.2 7.62095 10 7.62095C9.8 7.62095 9.625 7.69595 9.475 7.84595L6.875 10.4459C6.725 10.5959 6.65 10.7709 6.65 10.9709C6.65 11.1709 6.725 11.3459 6.875 11.4959L9.5 14.1209ZM10 20.9709C8.58333 20.9709 7.26667 20.7168 6.05 20.2084C4.83333 19.7001 3.775 18.9959 2.875 18.0959C1.975 17.1959 1.27083 16.1376 0.7625 14.9209C0.254167 13.7043 0 12.3876 0 10.9709C0 9.57095 0.254167 8.26261 0.7625 7.04595C1.27083 5.82928 1.975 4.77095 2.875 3.87095C3.775 2.97095 4.83333 2.26261 6.05 1.74595C7.26667 1.22928 8.58333 0.970947 10 0.970947C11.4 0.970947 12.7083 1.22928 13.925 1.74595C15.1417 2.26261 16.2 2.97095 17.1 3.87095C18 4.77095 18.7083 5.82928 19.225 7.04595C19.7417 8.26261 20 9.57095 20 10.9709C20 12.3876 19.7417 13.7043 19.225 14.9209C18.7083 16.1376 18 17.1959 17.1 18.0959C16.2 18.9959 15.1417 19.7001 13.925 20.2084C12.7083 20.7168 11.4 20.9709 10 20.9709ZM10 19.4709C12.4167 19.4709 14.4375 18.6584 16.0625 17.0334C17.6875 15.4084 18.5 13.3876 18.5 10.9709C18.5 8.55428 17.6875 6.53345 16.0625 4.90845C14.4375 3.28345 12.4167 2.47095 10 2.47095C7.58333 2.47095 5.5625 3.28345 3.9375 4.90845C2.3125 6.53345 1.5 8.55428 1.5 10.9709C1.5 13.3876 2.3125 15.4084 3.9375 17.0334C5.5625 18.6584 7.58333 19.4709 10 19.4709Z" fill="#A6A9AE"/>
</svg>
