<svg width="20" height="21" viewBox="0 0 20 21" fill="none" xmlns="http://www.w3.org/2000/svg">
<path d="M10.5 7.82095C10.3667 7.68761 10.1958 7.62511 9.9875 7.63345C9.77917 7.64178 9.60833 7.71261 9.475 7.84595C9.325 7.99595 9.25 8.17095 9.25 8.37095C9.25 8.57095 9.325 8.74595 9.475 8.89595L10.8 10.2209H6.975C6.775 10.2209 6.60417 10.2959 6.4625 10.4459C6.32083 10.5959 6.25 10.7709 6.25 10.9709C6.25 11.1876 6.32083 11.3668 6.4625 11.5084C6.60417 11.6501 6.78333 11.7209 7 11.7209H10.8L9.45 13.0709C9.31667 13.2043 9.25417 13.3751 9.2625 13.5834C9.27083 13.7918 9.34167 13.9626 9.475 14.0959C9.625 14.2459 9.8 14.3209 10 14.3209C10.2 14.3209 10.375 14.2459 10.525 14.0959L13.125 11.4959C13.275 11.3459 13.35 11.1709 13.35 10.9709C13.35 10.7709 13.275 10.5959 13.125 10.4459L10.5 7.82095ZM10 0.970947C11.4167 0.970947 12.7333 1.22511 13.95 1.73345C15.1667 2.24178 16.225 2.94595 17.125 3.84595C18.025 4.74595 18.7292 5.80428 19.2375 7.02095C19.7458 8.23761 20 9.55428 20 10.9709C20 12.3709 19.7458 13.6793 19.2375 14.8959C18.7292 16.1126 18.025 17.1709 17.125 18.0709C16.225 18.9709 15.1667 19.6793 13.95 20.1959C12.7333 20.7126 11.4167 20.9709 10 20.9709C8.6 20.9709 7.29167 20.7126 6.075 20.1959C4.85833 19.6793 3.8 18.9709 2.9 18.0709C2 17.1709 1.29167 16.1126 0.775 14.8959C0.258333 13.6793 0 12.3709 0 10.9709C0 9.55428 0.258333 8.23761 0.775 7.02095C1.29167 5.80428 2 4.74595 2.9 3.84595C3.8 2.94595 4.85833 2.24178 6.075 1.73345C7.29167 1.22511 8.6 0.970947 10 0.970947ZM10 2.47095C7.58333 2.47095 5.5625 3.28345 3.9375 4.90845C2.3125 6.53345 1.5 8.55428 1.5 10.9709C1.5 13.3876 2.3125 15.4084 3.9375 17.0334C5.5625 18.6584 7.58333 19.4709 10 19.4709C12.4167 19.4709 14.4375 18.6584 16.0625 17.0334C17.6875 15.4084 18.5 13.3876 18.5 10.9709C18.5 8.55428 17.6875 6.53345 16.0625 4.90845C14.4375 3.28345 12.4167 2.47095 10 2.47095Z" fill="#A6A9AE"/>
</svg>
