<svg width="22" height="25" viewBox="0 0 22 25" fill="none" xmlns="http://www.w3.org/2000/svg">
<path d="M2.46745 22.2666H7.20078V13.8666H14.8008V22.2666H19.5341V9.43324L11.0008 3.06658L2.46745 9.43324V22.2666ZM2.46745 24.4332C1.86745 24.4332 1.35634 24.2221 0.934114 23.7999C0.511892 23.3777 0.300781 22.8666 0.300781 22.2666V9.43324C0.300781 9.09991 0.373003 8.77769 0.517448 8.46658C0.661892 8.15547 0.878559 7.89991 1.16745 7.69991L9.66745 1.29991C9.88967 1.16658 10.1119 1.06102 10.3341 0.983244C10.5563 0.905466 10.7786 0.866577 11.0008 0.866577C11.2452 0.866577 11.473 0.905466 11.6841 0.983244C11.8952 1.06102 12.1119 1.16658 12.3341 1.29991L20.8341 7.69991C21.123 7.89991 21.3452 8.15547 21.5008 8.46658C21.6563 8.77769 21.7341 9.09991 21.7341 9.43324V22.2666C21.7341 22.8666 21.5174 23.3777 21.0841 23.7999C20.6508 24.2221 20.1341 24.4332 19.5341 24.4332H12.7008V15.9666H9.30078V24.4332H2.46745Z" fill="currentColor"/>
</svg>
