<svg width="20" height="14" viewBox="0 0 20 14" fill="none" xmlns="http://www.w3.org/2000/svg">
<path d="M1.47754 13.3171C1.29698 13.3171 1.14768 13.2581 1.02962 13.1401C0.911567 13.022 0.852539 12.8727 0.852539 12.6921V11.3588C0.852539 10.8727 0.977539 10.4317 1.22754 10.0359C1.47754 9.64005 1.82476 9.34491 2.26921 9.15047C3.28309 8.70603 4.19629 8.38658 5.00879 8.19214C5.82129 7.99769 6.65809 7.90047 7.51921 7.90047C8.38032 7.90047 9.21365 7.99769 10.0192 8.19214C10.8248 8.38658 11.7345 8.70603 12.7484 9.15047C13.1928 9.34491 13.5435 9.64005 13.8005 10.0359C14.0574 10.4317 14.1859 10.8727 14.1859 11.3588V12.6921C14.1859 12.8727 14.1268 13.022 14.0088 13.1401C13.8907 13.2581 13.7414 13.3171 13.5609 13.3171H1.47754ZM14.9775 13.3171C15.1164 13.2894 15.2275 13.2164 15.3109 13.0984C15.3942 12.9803 15.4359 12.831 15.4359 12.6505V11.3588C15.4359 10.4838 15.2136 9.76505 14.7692 9.20255C14.3248 8.64005 13.7414 8.18519 13.0192 7.83797C13.9775 7.94908 14.8803 8.11228 15.7275 8.32755C16.5748 8.54283 17.2623 8.78936 17.79 9.06714C18.2484 9.33103 18.6095 9.65742 18.8734 10.0463C19.1373 10.4352 19.2692 10.8727 19.2692 11.3588V12.6921C19.2692 12.8727 19.2102 13.022 19.0921 13.1401C18.9741 13.2581 18.8248 13.3171 18.6442 13.3171H14.9775ZM7.51921 6.62964C6.60254 6.62964 5.85254 6.33797 5.26921 5.75464C4.68587 5.1713 4.39421 4.42131 4.39421 3.50464C4.39421 2.58797 4.68587 1.83797 5.26921 1.25464C5.85254 0.671305 6.60254 0.379639 7.51921 0.379639C8.43587 0.379639 9.18587 0.671305 9.76921 1.25464C10.3525 1.83797 10.6442 2.58797 10.6442 3.50464C10.6442 4.42131 10.3525 5.1713 9.76921 5.75464C9.18587 6.33797 8.43587 6.62964 7.51921 6.62964ZM15.0192 3.50464C15.0192 4.42131 14.7275 5.1713 14.1442 5.75464C13.5609 6.33797 12.8109 6.62964 11.8942 6.62964C11.7414 6.62964 11.5713 6.61922 11.3838 6.59839C11.1963 6.57755 11.0261 6.53936 10.8734 6.4838C11.2067 6.13658 11.4602 5.7095 11.6338 5.20255C11.8074 4.69561 11.8942 4.12964 11.8942 3.50464C11.8942 2.87964 11.8074 2.32756 11.6338 1.84839C11.4602 1.36922 11.2067 0.92825 10.8734 0.525472C11.0261 0.483805 11.1963 0.449083 11.3838 0.421305C11.5713 0.393528 11.7414 0.379639 11.8942 0.379639C12.8109 0.379639 13.5609 0.671305 14.1442 1.25464C14.7275 1.83797 15.0192 2.58797 15.0192 3.50464ZM2.10254 12.0671H12.9359V11.3588C12.9359 11.1366 12.8699 10.9213 12.738 10.713C12.606 10.5046 12.4428 10.3588 12.2484 10.2755C11.2484 9.83103 10.4081 9.53241 9.72754 9.37964C9.04698 9.22686 8.31087 9.15047 7.51921 9.15047C6.72754 9.15047 5.98796 9.22686 5.30046 9.37964C4.61296 9.53241 3.76921 9.83103 2.76921 10.2755C2.57476 10.3588 2.41504 10.5046 2.29004 10.713C2.16504 10.9213 2.10254 11.1366 2.10254 11.3588V12.0671ZM7.51921 5.37964C8.06087 5.37964 8.50879 5.20255 8.86296 4.84839C9.21712 4.49422 9.39421 4.04631 9.39421 3.50464C9.39421 2.96297 9.21712 2.51506 8.86296 2.16089C8.50879 1.80672 8.06087 1.62964 7.51921 1.62964C6.97754 1.62964 6.52962 1.80672 6.17546 2.16089C5.82129 2.51506 5.64421 2.96297 5.64421 3.50464C5.64421 4.04631 5.82129 4.49422 6.17546 4.84839C6.52962 5.20255 6.97754 5.37964 7.51921 5.37964Z" fill="currentColor" />
</svg>
