<svg width="23" height="24" viewBox="0 0 28 27" fill="none" xmlns="http://www.w3.org/2000/svg">
<path d="M13.9993 26.9471C12.1327 26.9471 10.3882 26.5971 8.76602 25.8971C7.14379 25.1971 5.73268 24.2471 4.53268 23.0471C3.33268 21.8471 2.38824 20.4305 1.69935 18.7971C1.01046 17.1638 0.666016 15.4138 0.666016 13.5471C0.666016 11.6805 1.01046 9.94157 1.69935 8.33046C2.38824 6.71935 3.33268 5.31379 4.53268 4.11379C5.73268 2.91379 7.14379 1.9749 8.76602 1.29712C10.3882 0.619346 12.1327 0.280457 13.9993 0.280457C15.866 0.280457 17.6105 0.619346 19.2327 1.29712C20.8549 1.9749 22.266 2.91379 23.466 4.11379C24.666 5.31379 25.6105 6.71935 26.2994 8.33046C26.9882 9.94157 27.3327 11.6805 27.3327 13.5471C27.3327 15.4138 26.9882 17.1638 26.2994 18.7971C25.6105 20.4305 24.666 21.8471 23.466 23.0471C22.266 24.2471 20.8549 25.1971 19.2327 25.8971C17.6105 26.5971 15.866 26.9471 13.9993 26.9471ZM19.266 8.61379H24.266C23.5327 7.08046 22.5271 5.80268 21.2493 4.78046C19.9716 3.75823 18.4993 3.03601 16.8327 2.61379C17.3882 3.43601 17.8605 4.3249 18.2493 5.28046C18.6382 6.23601 18.9771 7.34712 19.266 8.61379ZM10.7993 8.61379H17.266C17.0216 7.43601 16.6105 6.29712 16.0327 5.19712C15.4549 4.09712 14.7771 3.1249 13.9993 2.28046C13.2882 2.88046 12.6882 3.66935 12.1993 4.64712C11.7105 5.6249 11.2438 6.94712 10.7993 8.61379ZM3.06602 16.5805H8.36602C8.29935 15.9805 8.26046 15.4416 8.24935 14.9638C8.23824 14.486 8.23268 14.0138 8.23268 13.5471C8.23268 12.9916 8.24379 12.4971 8.26602 12.0638C8.28824 11.6305 8.33268 11.1471 8.39935 10.6138H3.06602C2.91046 11.1471 2.8049 11.6249 2.74935 12.0471C2.69379 12.4693 2.66602 12.9693 2.66602 13.5471C2.66602 14.1249 2.69379 14.6416 2.74935 15.0971C2.8049 15.5527 2.91046 16.0471 3.06602 16.5805ZM11.166 24.6138C10.6105 23.7693 10.1327 22.8582 9.73268 21.8805C9.33268 20.9027 8.99935 19.8027 8.73268 18.5805H3.73268C4.57713 20.1582 5.5549 21.3971 6.66602 22.2971C7.77713 23.1971 9.27713 23.9693 11.166 24.6138ZM3.73268 8.61379H8.76602C9.01046 7.41379 9.32157 6.34157 9.69935 5.39712C10.0771 4.45268 10.5549 3.53601 11.1327 2.64712C9.46602 3.06935 8.01046 3.78046 6.76602 4.78046C5.52157 5.78046 4.51046 7.05823 3.73268 8.61379ZM13.9993 25.0138C14.7771 24.2138 15.4271 23.2971 15.9493 22.2638C16.4716 21.2305 16.8993 20.0027 17.2327 18.5805H10.7993C11.1105 19.9138 11.5271 21.1138 12.0493 22.1805C12.5716 23.2471 13.2216 24.1916 13.9993 25.0138ZM10.4327 16.5805H17.5993C17.6882 15.8916 17.7438 15.3305 17.766 14.8971C17.7882 14.4638 17.7994 14.0138 17.7994 13.5471C17.7994 13.1027 17.7882 12.6749 17.766 12.2638C17.7438 11.8527 17.6882 11.3027 17.5993 10.6138H10.4327C10.3438 11.3027 10.2882 11.8527 10.266 12.2638C10.2438 12.6749 10.2327 13.1027 10.2327 13.5471C10.2327 14.0138 10.2438 14.4638 10.266 14.8971C10.2882 15.3305 10.3438 15.8916 10.4327 16.5805ZM16.866 24.5805C18.466 24.0693 19.9049 23.3027 21.1827 22.2805C22.4605 21.2582 23.4882 20.0249 24.266 18.5805H19.2994C19.0105 19.7805 18.6716 20.8693 18.2827 21.8471C17.8938 22.8249 17.4216 23.736 16.866 24.5805ZM19.5993 16.5805H24.9327C25.0882 16.0471 25.1938 15.5527 25.2493 15.0971C25.3049 14.6416 25.3327 14.1249 25.3327 13.5471C25.3327 12.9693 25.3049 12.4693 25.2493 12.0471C25.1938 11.6249 25.0882 11.1471 24.9327 10.6138H19.6327C19.6994 11.3916 19.7438 11.986 19.766 12.3971C19.7882 12.8082 19.7994 13.1916 19.7994 13.5471C19.7994 14.036 19.7827 14.4971 19.7493 14.9305C19.716 15.3638 19.666 15.9138 19.5993 16.5805Z" fill="currentColor"/>
</svg>
