<svg width="19" height="25" viewBox="0 0 22 28" fill="none" xmlns="http://www.w3.org/2000/svg">
<path d="M1.19961 23.0804C0.888498 23.0804 0.627387 22.9749 0.416276 22.7637C0.205165 22.5526 0.0996094 22.2915 0.0996094 21.9804C0.0996094 21.6915 0.205165 21.436 0.416276 21.2137C0.627387 20.9915 0.888498 20.8804 1.19961 20.8804H2.96628V10.9137C2.96628 9.04708 3.52183 7.35819 4.63294 5.84708C5.74405 4.33597 7.21072 3.39152 9.03294 3.01375V2.08041C9.03294 1.54708 9.22183 1.10263 9.59961 0.747078C9.97739 0.391523 10.4441 0.213745 10.9996 0.213745C11.5552 0.213745 12.0218 0.391523 12.3996 0.747078C12.7774 1.10263 12.9663 1.54708 12.9663 2.08041V3.01375C14.7885 3.39152 16.2663 4.33597 17.3996 5.84708C18.5329 7.35819 19.0996 9.04708 19.0996 10.9137V20.8804H20.7996C21.1107 20.8804 21.3774 20.9915 21.5996 21.2137C21.8218 21.436 21.9329 21.6915 21.9329 21.9804C21.9329 22.2915 21.8218 22.5526 21.5996 22.7637C21.3774 22.9749 21.1107 23.0804 20.7996 23.0804H1.19961ZM10.9996 27.0137C10.2663 27.0137 9.63294 26.7526 9.09961 26.2304C8.56628 25.7082 8.29961 25.0804 8.29961 24.3471H13.6996C13.6996 25.0804 13.4329 25.7082 12.8996 26.2304C12.3663 26.7526 11.7329 27.0137 10.9996 27.0137ZM5.16628 20.8804H16.8996V10.9137C16.8996 9.24708 16.3385 7.84152 15.2163 6.69708C14.0941 5.55263 12.7107 4.98041 11.0663 4.98041C9.39961 4.98041 7.99961 5.55263 6.86628 6.69708C5.73294 7.84152 5.16628 9.24708 5.16628 10.9137V20.8804Z" fill="currentColor"/>
</svg>
