<svg width="16" height="16" viewBox="0 0 16 16" fill="none" xmlns="http://www.w3.org/2000/svg">
<path d="M1.81055 15.1448C1.47721 15.1448 1.18555 15.0198 0.935547 14.7698C0.685547 14.5198 0.560547 14.2281 0.560547 13.8948V1.39478C0.560547 1.06144 0.685547 0.769775 0.935547 0.519775C1.18555 0.269775 1.47721 0.144775 1.81055 0.144775H14.3105C14.6439 0.144775 14.9355 0.269775 15.1855 0.519775C15.4355 0.769775 15.5605 1.06144 15.5605 1.39478V13.8948C15.5605 14.2281 15.4355 14.5198 15.1855 14.7698C14.9355 15.0198 14.6439 15.1448 14.3105 15.1448H1.81055ZM1.81055 13.8948H14.3105V1.39478H1.81055V13.8948ZM4.60221 11.8739C4.78277 11.8739 4.93207 11.8149 5.05013 11.6969C5.16819 11.5788 5.22721 11.4295 5.22721 11.2489V8.22811C5.22721 8.04755 5.16819 7.89825 5.05013 7.78019C4.93207 7.66214 4.78277 7.60311 4.60221 7.60311C4.42166 7.60311 4.27235 7.66214 4.1543 7.78019C4.03624 7.89825 3.97721 8.04755 3.97721 8.22811V11.2489C3.97721 11.4295 4.03624 11.5788 4.1543 11.6969C4.27235 11.8149 4.42166 11.8739 4.60221 11.8739ZM11.5189 11.8739C11.6994 11.8739 11.8487 11.8149 11.9668 11.6969C12.0849 11.5788 12.1439 11.4295 12.1439 11.2489V3.74894C12.1439 3.56839 12.0849 3.41908 11.9668 3.30103C11.8487 3.18297 11.6994 3.12394 11.5189 3.12394C11.3383 3.12394 11.189 3.18297 11.071 3.30103C10.9529 3.41908 10.8939 3.56839 10.8939 3.74894V11.2489C10.8939 11.4295 10.9529 11.5788 11.071 11.6969C11.189 11.8149 11.3383 11.8739 11.5189 11.8739ZM8.06055 11.8739C8.2411 11.8739 8.39041 11.8149 8.50846 11.6969C8.62652 11.5788 8.68555 11.4295 8.68555 11.2489V10.0406C8.68555 9.86005 8.62652 9.71075 8.50846 9.59269C8.39041 9.47464 8.2411 9.41561 8.06055 9.41561C7.87999 9.41561 7.73069 9.47464 7.61263 9.59269C7.49457 9.71075 7.43555 9.86005 7.43555 10.0406V11.2489C7.43555 11.4295 7.49457 11.5788 7.61263 11.6969C7.73069 11.8149 7.87999 11.8739 8.06055 11.8739ZM8.08138 7.60311C8.24805 7.60311 8.39041 7.54408 8.50846 7.42603C8.62652 7.30797 8.68555 7.15866 8.68555 6.97811V6.95728C8.68555 6.79061 8.62305 6.64825 8.49805 6.53019C8.37305 6.41214 8.22721 6.35311 8.06055 6.35311C7.87999 6.35311 7.73069 6.41214 7.61263 6.53019C7.49457 6.64825 7.43555 6.79755 7.43555 6.97811V6.99894C7.43555 7.16561 7.49805 7.30797 7.62305 7.42603C7.74805 7.54408 7.90082 7.60311 8.08138 7.60311ZM1.81055 13.8948V1.39478V13.8948Z" fill="currentColor"/>
</svg>
