<svg width="26" height="23" viewBox="0 0 26 23" fill="none" xmlns="http://www.w3.org/2000/svg">
<path d="M3.39922 2.94712C3.08811 2.94712 2.827 2.84157 2.61589 2.63046C2.40477 2.41935 2.29922 2.15823 2.29922 1.84712C2.29922 1.55823 2.40477 1.30823 2.61589 1.09712C2.827 0.886012 3.08811 0.780457 3.39922 0.780457H22.6992C22.9881 0.780457 23.2381 0.886012 23.4492 1.09712C23.6603 1.30823 23.7659 1.56935 23.7659 1.88046C23.7659 2.19157 23.6603 2.44712 23.4492 2.64712C23.2381 2.84712 22.9881 2.94712 22.6992 2.94712H3.39922ZM3.56589 22.4471C3.25477 22.4471 2.99366 22.3416 2.78255 22.1305C2.57144 21.9193 2.46589 21.6582 2.46589 21.3471V13.8805H1.59922C1.26589 13.8582 0.999219 13.7193 0.799219 13.4638C0.599219 13.2082 0.532552 12.9138 0.599219 12.5805L2.09922 5.88046C2.14366 5.61379 2.27144 5.40268 2.48255 5.24712C2.69366 5.09157 2.92144 5.01379 3.16589 5.01379H22.8659C23.1103 5.01379 23.3381 5.09157 23.5492 5.24712C23.7603 5.40268 23.8881 5.61379 23.9326 5.88046L25.4326 12.5805C25.4992 12.9138 25.4326 13.2138 25.2326 13.4805C25.0326 13.7471 24.7659 13.8805 24.4326 13.8805H23.5659V21.3471C23.5659 21.636 23.4548 21.8916 23.2326 22.1138C23.0103 22.336 22.7548 22.4471 22.4659 22.4471C22.1548 22.4471 21.8937 22.336 21.6826 22.1138C21.4714 21.8916 21.3659 21.636 21.3659 21.3471V13.8805H15.3326V21.3471C15.3326 21.6582 15.227 21.9193 15.0159 22.1305C14.8048 22.3416 14.5437 22.4471 14.2326 22.4471H3.56589ZM4.66589 20.2471H13.1326V13.8805H4.66589V20.2471ZM2.96589 11.6805H23.0659H2.96589ZM2.96589 11.6805H23.0659L22.0659 7.21379H3.96589L2.96589 11.6805Z" fill="currentColor"/>
</svg>
